<?xml version="1.0" standalone="no"?>
<!DOCTYPE svg PUBLIC "-//W3C//DTD SVG 20010904//EN"
 "http://www.w3.org/TR/2001/REC-SVG-20010904/DTD/svg10.dtd">
<svg version="1.0" xmlns="http://www.w3.org/2000/svg"
 width="582.000000pt" height="582.000000pt" viewBox="0 0 582.000000 582.000000"
 preserveAspectRatio="xMidYMid meet">
<metadata>
Created by potrace 1.14, written by Peter Selinger 2001-2017
</metadata>
<g transform="translate(0.000000,582.000000) scale(0.100000,-0.100000)"
fill="#000000" stroke="none">
<path d="M1709 4736 c-97 -26 -184 -97 -227 -186 -12 -25 -271 -808 -575
-1740 l-554 -1695 290 -3 c159 -1 292 -1 294 2 2 2 82 242 177 532 l173 529
545 3 544 2 127 -497 c70 -274 132 -515 138 -535 l10 -38 369 0 c267 0 370 3
370 11 0 6 -16 70 -34 143 -19 72 -213 833 -431 1691 -285 1119 -403 1572
-421 1603 -55 93 -121 147 -220 177 -64 19 -504 20 -575 1z m252 -928 c6 -24
77 -303 158 -620 l147 -578 -417 0 -417 0 32 103 c18 56 108 335 201 620 l169
517 57 0 58 0 12 -42z"/>
<path d="M4295 3449 c-101 -24 -231 -75 -346 -133 -68 -35 -123 -68 -122 -73
1 -8 221 -414 227 -420 1 -1 50 21 109 51 148 74 220 96 316 96 99 0 183 -25
250 -74 66 -49 91 -94 98 -178 l6 -68 -189 0 c-104 0 -220 -5 -259 -10 -368
-53 -637 -256 -737 -555 -20 -60 -23 -90 -23 -215 0 -131 3 -152 27 -221 110
-312 386 -499 737 -499 64 0 145 7 181 14 93 20 218 70 289 116 34 22 64 40
66 40 2 0 20 -28 41 -62 20 -35 56 -91 81 -126 40 -57 47 -62 61 -49 10 8 94
80 189 160 l171 146 -53 81 c-94 143 -88 93 -95 780 l-5 605 -28 80 c-38 107
-70 163 -136 240 -106 122 -239 204 -411 255 -61 18 -106 23 -240 26 -91 2
-183 -1 -205 -7z m535 -1404 c0 -186 -1 -198 -24 -243 -27 -54 -110 -136 -176
-174 -25 -15 -79 -37 -120 -49 -69 -21 -82 -21 -160 -11 -202 25 -315 137
-313 307 1 111 49 194 151 262 112 75 232 99 505 102 l137 1 0 -195z"/>
</g>
</svg>
